<?xml version="1.0" standalone="no"?><!DOCTYPE svg PUBLIC "-//W3C//DTD SVG 1.1//EN" "http://www.w3.org/Graphics/SVG/1.1/DTD/svg11.dtd"><svg t="1754356741636" class="icon" viewBox="0 0 1024 1024" version="1.1" xmlns="http://www.w3.org/2000/svg" p-id="18110" xmlns:xlink="http://www.w3.org/1999/xlink" width="200" height="200"><path d="M298.666667 573.696V426.666667c0-46.933333 38.058667-85.034667 84.906666-85.290667l0.426667 0.085333a21.333333 21.333333 0 0 0 21.248-21.418666A21.333333 21.333333 0 0 0 384 298.666667c-70.570667 0-128 57.429333-128 128v275.029333c0 23.466667 19.2 42.666667 42.666667 42.666667h85.333333c23.466667 0 42.666667-19.2 42.666667-42.666667v-85.333333c0-23.466667-19.2-42.666667-42.666667-42.666667H298.666667zM640 573.696V426.666667c0-46.933333 38.058667-85.034667 84.906667-85.290667l0.426666 0.085333a21.333333 21.333333 0 0 0 21.248-21.418666A21.333333 21.333333 0 0 0 725.333333 298.666667c-70.570667 0-128 57.429333-128 128v275.029333c0 23.466667 19.2 42.666667 42.666667 42.666667h85.333333c23.466667 0 42.666667-19.2 42.666667-42.666667v-85.333333c0-23.466667-19.2-42.666667-42.666667-42.666667h-85.333333z" fill="#999999" p-id="18111"></path></svg>